<svg width="113" height="112" viewBox="0 0 113 112" fill="none" xmlns="http://www.w3.org/2000/svg">
<path fill-rule="evenodd" clip-rule="evenodd" d="M112.5 56C112.5 86.9279 87.4279 112 56.5 112C25.5721 112 0.5 86.9279 0.5 56C0.5 25.0721 25.5721 0 56.5 0C87.4279 0 112.5 25.0721 112.5 56ZM109.523 56C109.523 85.2835 85.7835 109.023 56.5 109.023C27.2165 109.023 3.47754 85.2835 3.47754 56C3.47754 26.7165 27.2165 2.97754 56.5 2.97754C85.7835 2.97754 109.523 26.7165 109.523 56ZM107.003 56C107.003 83.892 84.392 106.503 56.5 106.503C28.6079 106.503 5.99689 83.892 5.99689 56C5.99689 28.1079 28.6079 5.49689 56.5 5.49689C84.392 5.49689 107.003 28.1079 107.003 56ZM35.8203 20.321C36.532 24.6841 35.8036 29.307 33.4301 33.4332L33.4258 33.4308C33.3908 33.4982 33.3542 33.5651 33.3159 33.6316C31.9914 35.9342 29.1843 36.8038 27.0462 35.5739C24.9081 34.3439 24.2486 31.4802 25.5731 29.1776C25.6113 29.1111 25.6508 29.0458 25.6915 28.9818L25.6869 28.9791C28.0606 24.8528 31.6906 21.8991 35.8203 20.3209V20.321ZM31.8428 27.2354L35.8203 20.321L31.8428 27.2354L31.8428 27.2354ZM23.8619 83.4846C27.2891 80.692 31.6594 79.0183 36.4197 79.0183H36.4198V79.0233C36.4956 79.02 36.5719 79.0183 36.6486 79.0183C39.305 79.0183 41.4584 81.0179 41.4584 83.4846C41.4584 85.9512 39.305 87.9508 36.6486 87.9508C36.5719 87.9508 36.4956 87.9491 36.4198 87.9458V87.9508H36.4197C31.6594 87.9508 27.2891 86.2771 23.8619 83.4846ZM31.8783 74.0604C31.0786 76.3938 28.3932 77.5873 25.8803 76.7261C25.8077 76.7012 25.736 76.6749 25.6653 76.6472L25.6637 76.652C21.1605 75.1088 17.5688 72.1086 15.2321 68.3558C19.3795 66.8251 24.0564 66.6586 28.5595 68.2019L28.5596 68.2019L28.558 68.2065C28.6308 68.228 28.7036 68.2512 28.7762 68.276C31.2891 69.1372 32.6779 71.727 31.8783 74.0604ZM16.0691 61.6762C13.2929 57.8094 12.1036 53.2831 12.3733 48.8705L12.3731 48.8703C16.6404 50.0256 20.5489 52.5996 23.3251 56.4664L23.3252 56.4665L23.3211 56.4695C23.368 56.5292 23.4139 56.5903 23.4587 56.6527C25.008 58.8105 24.6395 61.726 22.6358 63.1646C20.6321 64.6031 17.7519 64.0201 16.2027 61.8622C16.1579 61.7999 16.1147 61.7369 16.0731 61.6733L16.0691 61.6762ZM31.0871 20.8296L31.025 20.8506L30.9629 20.8718L31.0871 20.8296ZM18.7007 32.8134C17.1574 36.9561 16.9767 41.6324 18.5061 46.1402L18.5061 46.1402L18.5109 46.1386C18.5321 46.2116 18.5551 46.2844 18.5798 46.3572C19.4333 48.8727 22.0187 50.2695 24.3546 49.477C26.6905 48.6844 27.8921 46.0027 27.0387 43.4872C27.014 43.4144 26.9879 43.3427 26.9603 43.2718L26.965 43.2703C25.4355 38.7625 22.4464 35.1616 18.7009 32.8135L21.2638 40.3674L21.2637 40.3674L18.7007 32.8134ZM52.9883 91.2837C54.8853 89.4241 55.0232 86.4887 53.2964 84.7273C51.5697 82.9658 48.6321 83.0454 46.7352 84.905C46.6803 84.9588 46.627 85.0134 46.5751 85.0689L46.5716 85.0654L46.5715 85.0654C43.1723 88.3977 41.2232 92.6523 40.7307 97.0455C45.1329 96.6405 49.4254 94.7763 52.8247 91.444L52.8213 91.4405C52.8778 91.3897 52.9335 91.3375 52.9883 91.2837ZM76.3888 79.0183C81.149 79.0183 85.5194 80.692 88.9465 83.4846C85.5194 86.2771 81.149 87.9508 76.3888 87.9508H76.3887V87.9459C76.3129 87.9492 76.2367 87.9508 76.16 87.9508C73.5036 87.9508 71.3502 85.9512 71.3502 83.4846C71.3502 81.0179 73.5036 79.0183 76.16 79.0183C76.2367 79.0183 76.3129 79.02 76.3887 79.0233V79.0183H76.3888ZM87.1452 76.6521C91.6482 75.1088 95.2399 72.1087 97.5766 68.3559C93.4293 66.8252 88.7524 66.6587 84.2494 68.2019L84.251 68.2065C84.178 68.228 84.1051 68.2512 84.0323 68.2761C81.5194 69.1373 80.1306 71.727 80.9302 74.0604C81.7299 76.3939 84.4153 77.5874 86.9282 76.7262C87.0009 76.7013 87.0727 76.6749 87.1435 76.6471L87.1452 76.6521ZM100.435 48.8707C100.705 53.2832 99.5156 57.8093 96.7395 61.676L96.7355 61.6731C96.6939 61.7367 96.6507 61.7998 96.6059 61.8621C95.0566 64.02 92.1764 64.6031 90.1727 63.1645C88.169 61.7259 87.8006 58.8104 89.3498 56.6526C89.3946 56.5902 89.4405 56.5291 89.4875 56.4694L89.4835 56.4665C92.2596 52.5998 96.168 50.0259 100.435 48.8706L100.435 48.8705L100.435 48.8705L100.435 48.8707ZM94.3025 46.1402C95.8319 41.6324 95.6512 36.956 94.1078 32.8134L91.5449 40.3673L91.5446 40.3673L94.1076 32.8133C90.362 35.1615 87.3729 38.7623 85.8434 43.2701L85.8481 43.2717C85.8206 43.3425 85.7944 43.4143 85.7698 43.487C84.9163 46.0026 86.118 48.6843 88.4538 49.4768C90.7897 50.2694 93.3752 48.8726 94.2287 46.357C94.2533 46.2843 94.2763 46.2115 94.2975 46.1385L94.3025 46.1402ZM76.9883 20.3211C81.1177 21.8993 84.7475 24.853 87.1211 28.9792L87.117 28.9815C87.1577 29.0457 87.1973 29.1111 87.2356 29.1778C88.5602 31.4804 87.9006 34.344 85.7625 35.574C83.6244 36.8039 80.8173 35.9344 79.4928 33.6318C79.4544 33.5651 79.4178 33.498 79.3828 33.4305L79.3784 33.433C77.0049 29.3069 76.2766 24.6843 76.9882 20.3212L76.9883 20.3211ZM88.2007 91.1253L88.2592 91.0654L88.1419 91.185L88.2007 91.1253ZM59.9839 91.4441C63.3831 94.7764 67.6755 96.6406 72.0777 97.0456C71.5852 92.6523 69.636 88.3979 66.2369 85.0656L66.2368 85.0655L66.2335 85.0689C66.1816 85.0134 66.1283 84.9588 66.0734 84.905C64.1765 83.0454 61.2389 82.9658 59.5122 84.7273C57.7854 86.4887 57.9234 89.4241 59.8203 91.2837C59.8751 91.3375 59.9308 91.3897 59.9873 91.4405L59.9839 91.444L59.9839 91.4441Z" fill="#C6A24D"/>
</svg>
